<svg xmlns="http://www.w3.org/2000/svg"
	xmlns:xlink="http://www.w3.org/1999/xlink" width="669" height="539" viewBox="0 0 669 539">
	<defs>
		<clipPath id="a">
			<rect width="200" height="200" fill="#bbbec3"/>
		</clipPath>
	</defs>
	<g transform="translate(21263 -14743)">
		<g transform="translate(-21263 14743)" fill="#fff" stroke="#707070" stroke-width="1">
			<rect width="669" height="539" stroke="none"/>
			<rect x="0.5" y="0.5" width="668" height="538" fill="none"/>
		</g>
		<g transform="translate(5 2)">
			<rect width="610" height="480" rx="16" transform="translate(-21238 14771)" fill="#cfd2d6"/>
			<g transform="translate(-21033 14911)">
				<g clip-path="url(#a)">
					<path d="M185.24,0H14.507A14.691,14.691,0,0,0,0,14.566V185.457A14.638,14.638,0,0,0,14.52,200l170.921-.051A14.686,14.686,0,0,0,200,185.384V14.544A14.784,14.784,0,0,0,185.24,0M14.545,192.251a6.981,6.981,0,0,1-6.97-6.939V176.1l49.5-49.55,65.673,65.7Zm177.573-6.436a6.977,6.977,0,0,1-6.994,6.411H133.435L83.951,142.674l47.891-47.891,60.292,60.306Zm.047-42.024L134.58,86.506a3.839,3.839,0,0,0-5.4,0l-50.6,50.551L60,118.493a3.792,3.792,0,0,0-5.346,0L7.575,165.334V16.523l-.248-.165.227-2.478A6.9,6.9,0,0,1,14.577,7.6H185.385a6.748,6.748,0,0,1,6.777,6.561l0,.131Z" fill="#bbbec3"/>
					<path d="M66.448,28.164h-.042A28.6,28.6,0,0,0,37.827,56.817l0,1.342A28.64,28.64,0,1,0,66.448,28.164m.563,50.79c-.211.006-.423.008-.634.008A22.607,22.607,0,0,1,43.8,56.932V56.9c-.008-.389-.007-.777,0-1.136a22.619,22.619,0,1,1,23.21,23.184" transform="translate(7.282 5.433)" fill="#bbbec3"/>
				</g>
			</g>
		</g>
	</g>
</svg>
